<svg xmlns="http://www.w3.org/2000/svg" viewBox="0 0 720 210" font-family="sans-serif">
    <text x="360.0" y="15" text-anchor="middle" font-size="20" font-weight="bold">Why training
        matters: spikes before and after</text>
    <text x="138" y="76" text-anchor="end" font-family="sans-serif" font-size="15"
        font-weight="bold">Untrained</text>
    <text x="360" y="45" text-anchor="middle" font-family="sans-serif" font-size="18">Goal = 20
        spikes</text>
    <text x="138" y="96" text-anchor="end" font-family="sans-serif" font-size="14" fill="#A55">spikes
        = 4</text>
    <line x1="150" y1="80" x2="690" y2="80" stroke="#ccc" stroke-width="1" />
    <line x1="255.3" y1="64" x2="255.3" y2="96" stroke="black" stroke-width="2" />
    <line x1="363.3" y1="64" x2="363.3" y2="96" stroke="black" stroke-width="2" />
    <line x1="471.3" y1="64" x2="471.3" y2="96" stroke="black" stroke-width="2" />
    <line x1="579.3" y1="64" x2="579.3" y2="96" stroke="black" stroke-width="2" />
    <line x1="687.3" y1="64" x2="687.3" y2="96" stroke="black" stroke-width="2" />
    <text x="138" y="146" text-anchor="end" font-family="sans-serif" font-size="15"
        font-weight="bold">Trained</text>
    <text x="138" y="166" text-anchor="end" font-family="sans-serif" font-size="14" fill="#5A5">spikes
        = 20</text>
    <line x1="150" y1="150" x2="690" y2="150" stroke="#ccc" stroke-width="1" />
    <line x1="174.3" y1="134" x2="174.3" y2="166" stroke="black" stroke-width="2" />
    <line x1="201.3" y1="134" x2="201.3" y2="166" stroke="black" stroke-width="2" />
    <line x1="228.3" y1="134" x2="228.3" y2="166" stroke="black" stroke-width="2" />
    <line x1="255.3" y1="134" x2="255.3" y2="166" stroke="black" stroke-width="2" />
    <line x1="282.3" y1="134" x2="282.3" y2="166" stroke="black" stroke-width="2" />
    <line x1="309.3" y1="134" x2="309.3" y2="166" stroke="black" stroke-width="2" />
    <line x1="336.3" y1="134" x2="336.3" y2="166" stroke="black" stroke-width="2" />
    <line x1="363.3" y1="134" x2="363.3" y2="166" stroke="black" stroke-width="2" />
    <line x1="390.3" y1="134" x2="390.3" y2="166" stroke="black" stroke-width="2" />
    <line x1="417.3" y1="134" x2="417.3" y2="166" stroke="black" stroke-width="2" />
    <line x1="444.3" y1="134" x2="444.3" y2="166" stroke="black" stroke-width="2" />
    <line x1="471.3" y1="134" x2="471.3" y2="166" stroke="black" stroke-width="2" />
    <line x1="498.3" y1="134" x2="498.3" y2="166" stroke="black" stroke-width="2" />
    <line x1="525.3" y1="134" x2="525.3" y2="166" stroke="black" stroke-width="2" />
    <line x1="552.3" y1="134" x2="552.3" y2="166" stroke="black" stroke-width="2" />
    <line x1="579.3" y1="134" x2="579.3" y2="166" stroke="black" stroke-width="2" />
    <line x1="606.3" y1="134" x2="606.3" y2="166" stroke="black" stroke-width="2" />
    <line x1="633.3" y1="134" x2="633.3" y2="166" stroke="black" stroke-width="2" />
    <line x1="660.3" y1="134" x2="660.3" y2="166" stroke="black" stroke-width="2" />
    <line x1="687.3" y1="134" x2="687.3" y2="166" stroke="black" stroke-width="2" />
    <text x="150" y="195" font-size="12" fill="#555">Time 0</text>
    <text x="690" y="195" text-anchor="end" font-size="12" fill="#555">Time 100</text>
</svg>